<?xml version="1.0" standalone="no"?><!DOCTYPE svg PUBLIC "-//W3C//DTD SVG 1.1//EN" "http://www.w3.org/Graphics/SVG/1.1/DTD/svg11.dtd"><svg xmlns="http://www.w3.org/2000/svg" viewBox="0 0 650 400" version="1.1"><clipPath id="box"><rect x="0" y="0" width="650" height="400" style="fill:none;stroke:none;" /></clipPath><g clip-path="url(#box)"><rect x="0.00" y="0.00" width="650.00" height="400.00" style="fill:#FFFFFF;stroke:none;" /><path d="M0.00 400.00 L650.00 400.00 M0.00 333.00 L650.00 333.00 M0.00 266.00 L650.00 266.00 M0.00 200.00 L650.00 200.00 M0.00 133.00 L650.00 133.00 M0.00 66.00 L650.00 66.00 M0.00 0.00 L650.00 0.00 M0.00 0.00 L0.00 400.00 M81.00 0.00 L81.00 400.00 M162.00 0.00 L162.00 400.00 M243.00 0.00 L243.00 400.00 M325.00 0.00 L325.00 400.00 M406.00 0.00 L406.00 400.00 M487.00 0.00 L487.00 400.00 M568.00 0.00 L568.00 400.00 M650.00 0.00 L650.00 400.00 " style="fill:none;stroke:#D0D0D0;stroke-width:1;" /><path d="M325.00 0.00 L325.00 400.00 " style="fill:none;stroke:#BFAEAE;stroke-width:1;" /><path d="M0.00 200.00 L650.00 200.00 " style="fill:none;stroke:#BFAEAE;stroke-width:1;" /><text x="333.125" y="335.83333333333337" text-anchor="start" style="font:10px Droid Sans,Trebuchet MS,Arial,Helvetica,sans-serif;stroke:none;fill:#000000">-1</text><text x="333.125" y="269.16666666666663" text-anchor="start" style="font:10px Droid Sans,Trebuchet MS,Arial,Helvetica,sans-serif;stroke:none;fill:#000000">-0.5</text><text x="333.125" y="202.5" text-anchor="start" style="font:10px Droid Sans,Trebuchet MS,Arial,Helvetica,sans-serif;stroke:none;fill:#000000">0</text><text x="333.125" y="135.83333333333331" text-anchor="start" style="font:10px Droid Sans,Trebuchet MS,Arial,Helvetica,sans-serif;stroke:none;fill:#000000">0.5</text><text x="333.125" y="69.16666666666666" text-anchor="start" style="font:10px Droid Sans,Trebuchet MS,Arial,Helvetica,sans-serif;stroke:none;fill:#000000">1</text><text x="81.25" y="216.125" text-anchor="middle" style="font:10px Droid Sans,Trebuchet MS,Arial,Helvetica,sans-serif;stroke:none;fill:#000000">-1.5</text><text x="162.5" y="216.125" text-anchor="middle" style="font:10px Droid Sans,Trebuchet MS,Arial,Helvetica,sans-serif;stroke:none;fill:#000000">-1</text><text x="243.75" y="216.125" text-anchor="middle" style="font:10px Droid Sans,Trebuchet MS,Arial,Helvetica,sans-serif;stroke:none;fill:#000000">-0.5</text><text x="325" y="216.125" text-anchor="middle" style="font:10px Droid Sans,Trebuchet MS,Arial,Helvetica,sans-serif;stroke:none;fill:#000000">0</text><text x="406.25" y="216.125" text-anchor="middle" style="font:10px Droid Sans,Trebuchet MS,Arial,Helvetica,sans-serif;stroke:none;fill:#000000">0.5</text><text x="487.5" y="216.125" text-anchor="middle" style="font:10px Droid Sans,Trebuchet MS,Arial,Helvetica,sans-serif;stroke:none;fill:#000000">1</text><text x="568.75" y="216.125" text-anchor="middle" style="font:10px Droid Sans,Trebuchet MS,Arial,Helvetica,sans-serif;stroke:none;fill:#000000">1.5</text><path d="M-10.00 200.00 L-0.25 200.00 L0.75 200.00 L2.75 200.00 L4.75 200.00 L6.75 200.00 L8.75 200.00 L10.75 200.00 L12.75 200.00 L14.75 200.00 L16.75 200.00 L18.75 200.00 L20.75 200.00 L22.75 200.00 L24.75 200.00 L26.75 200.00 L28.75 200.00 L30.75 200.00 L32.75 200.00 L34.75 200.00 L36.75 200.00 L38.75 200.00 L40.75 200.00 L42.75 200.00 L44.75 200.00 L46.75 200.00 L48.75 200.00 L50.75 200.00 L52.75 200.00 L54.75 200.00 L56.75 200.00 L58.75 200.00 L60.75 200.00 L62.75 200.00 L64.75 200.00 L66.75 200.00 L68.75 200.00 L70.75 200.00 L72.75 200.00 L74.75 200.00 L76.75 200.00 L78.75 200.00 L80.75 200.00 L82.75 200.00 L84.75 200.00 L86.75 200.00 L88.75 200.00 L90.75 200.00 L92.75 200.00 L94.75 200.00 L96.75 200.00 L98.75 200.00 L100.75 200.00 L102.75 200.00 L104.75 200.00 L106.75 200.00 L108.75 200.00 L110.75 200.00 L112.75 200.00 L114.75 200.00 L116.75 200.00 L118.75 200.00 L120.75 200.00 L122.75 200.00 L124.75 200.00 L126.75 200.00 L128.75 200.00 L130.75 200.00 L132.75 200.00 L134.75 200.00 L136.75 200.00 L138.75 200.00 L140.75 200.00 L142.75 200.00 L144.75 200.00 L146.75 200.00 L148.75 200.00 L150.75 200.00 L152.75 200.00 L154.75 200.00 L156.75 200.00 L158.75 200.00 L160.75 200.00 L162.75 200.00 L164.75 200.00 L166.75 200.00 L168.75 200.00 L170.75 200.00 L172.75 200.00 L174.75 200.00 L176.75 200.00 L178.75 200.00 L180.75 200.00 L182.75 200.00 L184.75 200.00 L186.75 200.00 L188.75 200.00 L190.75 200.00 L192.75 200.00 L194.75 200.00 L196.75 200.00 L198.75 200.00 L200.75 200.00 L202.75 200.00 L204.75 200.00 L206.75 200.00 L208.75 200.00 L210.75 200.00 L212.75 200.00 L214.75 200.00 L216.75 200.00 L218.75 200.00 L220.75 200.00 L222.75 200.00 L224.75 200.00 L226.75 200.00 L228.75 200.00 L230.75 200.00 L232.75 200.00 L234.75 200.00 L236.75 200.00 L238.75 200.00 L240.75 200.00 L242.75 200.00 L244.75 200.00 L246.75 200.00 L248.75 200.00 L250.75 200.00 L252.75 200.00 L254.75 200.00 L256.75 200.00 L258.75 200.00 L260.75 200.00 L262.75 200.00 L264.75 200.00 L266.75 200.00 L268.75 200.00 L270.75 200.00 L272.75 200.00 L274.75 200.00 L276.75 200.00 L278.75 200.00 L280.75 200.00 L282.75 200.00 L284.75 200.00 L286.75 200.00 L288.75 200.00 L290.75 200.00 L292.75 200.00 L294.75 200.00 L296.75 200.00 L298.75 200.00 L300.75 200.00 L302.75 200.00 L304.75 200.00 L306.75 200.00 L308.75 200.00 L310.75 200.00 L312.75 200.00 L314.75 200.00 L316.75 200.00 L318.75 200.00 L320.75 200.00 L322.75 200.00 L324.75 200.00 L326.75 198.56 L328.14 197.42 L329.36 196.42 L330.58 195.42 L331.80 194.42 L333.02 193.42 L334.24 192.42 L335.46 191.42 L336.67 190.42 L337.89 189.42 L339.11 188.42 L340.33 187.42 L341.55 186.42 L342.77 185.42 L343.99 184.42 L345.21 183.42 L346.42 182.42 L347.64 181.42 L348.86 180.42 L350.08 179.42 L351.30 178.42 L352.52 177.42 L353.74 176.42 L354.96 175.42 L356.17 174.42 L357.39 173.42 L358.61 172.42 L359.83 171.42 L361.05 170.42 L362.27 169.42 L363.49 168.42 L364.71 167.42 L365.92 166.42 L367.14 165.42 L368.36 164.42 L369.58 163.42 L370.80 162.42 L372.02 161.42 L373.24 160.42 L374.46 159.42 L375.67 158.42 L376.89 157.42 L378.11 156.42 L379.33 155.42 L380.55 154.42 L381.77 153.42 L382.99 152.42 L384.21 151.42 L385.42 150.42 L386.64 149.42 L387.86 148.42 L389.08 147.42 L390.30 146.42 L391.52 145.42 L392.74 144.42 L393.96 143.42 L395.17 142.42 L396.39 141.42 L397.61 140.42 L398.83 139.42 L400.05 138.42 L401.27 137.42 L402.49 136.42 L403.71 135.42 L404.92 134.42 L406.14 133.42 L407.36 132.42 L408.58 131.42 L409.80 130.42 L411.02 129.42 L412.24 128.42 L413.46 127.42 L414.67 126.42 L415.89 125.42 L417.11 124.42 L418.33 123.42 L419.55 122.42 L420.77 121.42 L421.99 120.42 L423.21 119.42 L424.42 118.42 L425.64 117.42 L426.86 116.42 L428.08 115.42 L429.30 114.42 L430.52 113.42 L431.74 112.42 L432.96 111.42 L434.17 110.42 L435.39 109.42 L436.61 108.42 L437.83 107.42 L439.05 106.42 L440.27 105.42 L441.49 104.42 L442.71 103.42 L443.92 102.42 L445.14 101.42 L446.36 100.42 L447.58 99.42 L448.80 98.42 L450.02 97.42 L451.24 96.42 L452.46 95.42 L453.67 94.42 L454.89 93.42 L456.11 92.42 L457.33 91.42 L458.55 90.42 L459.77 89.42 L460.99 88.42 L462.21 87.42 L463.42 86.42 L464.64 85.42 L465.86 84.42 L467.08 83.42 L468.30 82.42 L469.52 81.42 L470.74 80.42 L471.96 79.42 L473.17 78.42 L474.39 77.42 L475.61 76.42 L476.83 75.42 L478.05 74.42 L479.27 73.42 L480.49 72.42 L481.71 71.42 L482.92 70.42 L484.14 69.42 L485.36 68.42 L486.58 67.42 L487.80 66.42 L489.02 65.42 L490.24 64.42 L491.46 63.42 L492.67 62.42 L493.89 61.42 L495.11 60.42 L496.33 59.42 L497.55 58.42 L498.77 57.42 L499.99 56.42 L501.21 55.42 L502.42 54.42 L503.64 53.42 L504.86 52.42 L506.08 51.42 L507.30 50.42 L508.52 49.42 L509.74 48.42 L510.96 47.42 L512.17 46.42 L513.39 45.42 L514.61 44.42 L515.83 43.42 L517.05 42.42 L518.27 41.42 L519.49 40.42 L520.71 39.42 L521.92 38.42 L523.14 37.42 L524.36 36.42 L525.58 35.42 L526.80 34.42 L528.02 33.42 L529.24 32.42 L530.46 31.42 L531.67 30.42 L532.89 29.42 L534.11 28.42 L535.33 27.42 L536.55 26.42 L537.77 25.42 L538.99 24.42 L540.21 23.42 L541.42 22.42 L542.64 21.42 L543.86 20.42 L545.08 19.42 L546.30 18.42 L547.52 17.42 L548.74 16.42 L549.96 15.42 L551.17 14.42 L552.39 13.42 L553.61 12.42 L554.83 11.42 L556.05 10.42 L557.27 9.42 L558.49 8.42 L559.71 7.42 L560.92 6.42 L562.14 5.42 L563.36 4.42 L564.58 3.42 L565.80 2.42 L567.02 1.42 L568.24 0.42 L569.46 -0.58 " style="fill:none;stroke:#000000;stroke-width:1;" /></g></svg>