<?xml version="1.0" standalone="no"?><!DOCTYPE svg PUBLIC "-//W3C//DTD SVG 1.1//EN" "http://www.w3.org/Graphics/SVG/1.1/DTD/svg11.dtd"><svg xmlns="http://www.w3.org/2000/svg" viewBox="0 0 650 400" version="1.1"><clipPath id="box"><rect x="0" y="0" width="650" height="400" style="fill:none;stroke:none;" /></clipPath><g clip-path="url(#box)"><rect x="0.00" y="0.00" width="650.00" height="400.00" style="fill:#FFFFFF;stroke:none;" /><path d="M0.00 400.00 L650.00 400.00 M0.00 333.00 L650.00 333.00 M0.00 266.00 L650.00 266.00 M0.00 200.00 L650.00 200.00 M0.00 133.00 L650.00 133.00 M0.00 66.00 L650.00 66.00 M0.00 0.00 L650.00 0.00 M0.00 0.00 L0.00 400.00 M65.00 0.00 L65.00 400.00 M130.00 0.00 L130.00 400.00 M195.00 0.00 L195.00 400.00 M260.00 0.00 L260.00 400.00 M325.00 0.00 L325.00 400.00 M390.00 0.00 L390.00 400.00 M454.00 0.00 L454.00 400.00 M520.00 0.00 L520.00 400.00 M585.00 0.00 L585.00 400.00 M650.00 0.00 L650.00 400.00 " style="fill:none;stroke:#D0D0D0;stroke-width:1;" /><path d="M325.00 0.00 L325.00 400.00 " style="fill:none;stroke:#000000;stroke-width:1;" /><path d="M0.00 200.00 L650.00 200.00 " style="fill:none;stroke:#000000;stroke-width:1;" /><text x="333.125" y="335.83333333333337" text-anchor="start" style="font:10px Droid Sans,Trebuchet MS,Arial,Helvetica,sans-serif;stroke:none;fill:#000000">-1</text><text x="333.125" y="269.16666666666663" text-anchor="start" style="font:10px Droid Sans,Trebuchet MS,Arial,Helvetica,sans-serif;stroke:none;fill:#000000">-0.5</text><text x="333.125" y="202.5" text-anchor="start" style="font:10px Droid Sans,Trebuchet MS,Arial,Helvetica,sans-serif;stroke:none;fill:#000000">0</text><text x="333.125" y="135.83333333333331" text-anchor="start" style="font:10px Droid Sans,Trebuchet MS,Arial,Helvetica,sans-serif;stroke:none;fill:#000000">0.5</text><text x="333.125" y="69.16666666666666" text-anchor="start" style="font:10px Droid Sans,Trebuchet MS,Arial,Helvetica,sans-serif;stroke:none;fill:#000000">1</text><text x="65" y="216.125" text-anchor="middle" style="font:10px Droid Sans,Trebuchet MS,Arial,Helvetica,sans-serif;stroke:none;fill:#000000">-4</text><text x="130" y="216.125" text-anchor="middle" style="font:10px Droid Sans,Trebuchet MS,Arial,Helvetica,sans-serif;stroke:none;fill:#000000">-3</text><text x="195" y="216.125" text-anchor="middle" style="font:10px Droid Sans,Trebuchet MS,Arial,Helvetica,sans-serif;stroke:none;fill:#000000">-2</text><text x="260" y="216.125" text-anchor="middle" style="font:10px Droid Sans,Trebuchet MS,Arial,Helvetica,sans-serif;stroke:none;fill:#000000">-1</text><text x="325" y="216.125" text-anchor="middle" style="font:10px Droid Sans,Trebuchet MS,Arial,Helvetica,sans-serif;stroke:none;fill:#000000">0</text><text x="390" y="216.125" text-anchor="middle" style="font:10px Droid Sans,Trebuchet MS,Arial,Helvetica,sans-serif;stroke:none;fill:#000000">1</text><text x="454.99999999999994" y="216.125" text-anchor="middle" style="font:10px Droid Sans,Trebuchet MS,Arial,Helvetica,sans-serif;stroke:none;fill:#000000">2</text><text x="520" y="216.125" text-anchor="middle" style="font:10px Droid Sans,Trebuchet MS,Arial,Helvetica,sans-serif;stroke:none;fill:#000000">3</text><text x="585" y="216.125" text-anchor="middle" style="font:10px Droid Sans,Trebuchet MS,Arial,Helvetica,sans-serif;stroke:none;fill:#000000">4</text><path d="M-10.00 200.00 L-0.25 199.11 L0.75 199.10 L2.75 199.07 L4.75 199.04 L6.75 199.01 L8.75 198.98 L10.75 198.95 L12.75 198.92 L14.75 198.88 L16.75 198.85 L18.75 198.81 L20.75 198.78 L22.75 198.74 L24.75 198.70 L26.75 198.66 L28.75 198.62 L30.75 198.57 L32.75 198.53 L34.75 198.48 L36.75 198.44 L38.75 198.39 L40.75 198.34 L42.75 198.29 L44.75 198.24 L46.75 198.18 L48.75 198.12 L50.75 198.07 L52.75 198.01 L54.75 197.95 L56.75 197.88 L58.75 197.82 L60.75 197.75 L62.75 197.68 L64.75 197.61 L66.75 197.54 L68.75 197.46 L70.75 197.38 L72.75 197.30 L74.75 197.22 L76.75 197.14 L78.75 197.05 L80.75 196.96 L82.75 196.87 L84.75 196.77 L86.75 196.67 L88.75 196.57 L90.75 196.47 L92.75 196.36 L94.75 196.25 L96.75 196.14 L98.75 196.02 L100.75 195.90 L102.75 195.77 L104.75 195.65 L106.75 195.51 L108.75 195.38 L110.75 195.24 L112.75 195.10 L114.75 194.95 L116.75 194.80 L118.75 194.64 L120.75 194.48 L122.75 194.32 L124.75 194.15 L126.75 193.97 L128.75 193.79 L130.75 193.61 L132.75 193.42 L134.75 193.22 L136.75 193.02 L138.75 192.81 L140.75 192.60 L142.75 192.38 L144.75 192.16 L146.75 191.93 L148.75 191.69 L150.75 191.45 L152.75 191.20 L154.75 190.95 L156.75 190.68 L158.75 190.41 L160.75 190.13 L162.75 189.85 L164.75 189.56 L166.75 189.26 L168.75 188.95 L170.75 188.63 L172.75 188.31 L174.75 187.98 L176.75 187.64 L178.75 187.29 L180.75 186.93 L182.75 186.56 L184.75 186.18 L186.75 185.80 L188.75 185.40 L190.75 185.00 L192.75 184.58 L194.75 184.16 L196.75 183.73 L198.75 183.28 L200.75 182.83 L202.75 182.36 L204.75 181.88 L206.75 181.40 L208.75 180.90 L210.75 180.39 L212.75 179.87 L214.75 179.34 L216.75 178.79 L218.75 178.24 L220.75 177.67 L222.75 177.10 L224.75 176.51 L226.75 175.91 L228.75 175.29 L230.75 174.67 L232.75 174.03 L234.75 173.38 L236.75 172.72 L238.75 172.04 L240.75 171.36 L242.75 170.66 L244.75 169.95 L246.75 169.23 L248.75 168.49 L250.75 167.75 L252.75 166.99 L254.75 166.22 L256.75 165.44 L258.75 164.64 L260.75 163.84 L262.75 163.02 L264.75 162.19 L266.75 161.35 L268.75 160.50 L270.75 159.64 L272.75 158.77 L274.75 157.89 L276.75 157.00 L278.75 156.10 L280.75 155.19 L282.75 154.27 L284.75 153.34 L286.75 152.40 L288.75 151.46 L290.75 150.50 L292.75 149.54 L294.75 148.57 L296.75 147.60 L298.75 146.61 L300.75 145.63 L302.75 144.63 L304.75 143.63 L306.75 142.63 L308.74 141.63 L310.73 140.62 L312.70 139.62 L314.68 138.62 L316.64 137.61 L318.60 136.61 L320.56 135.61 L322.51 134.61 L324.46 133.61 L326.41 132.61 L328.36 131.61 L330.31 130.61 L332.26 129.61 L334.22 128.61 L336.18 127.62 L338.14 126.62 L340.11 125.62 L342.08 124.62 L344.06 123.63 L346.05 122.63 L348.04 121.64 L350.04 120.65 L352.04 119.66 L354.04 118.68 L356.04 117.71 L358.04 116.74 L360.04 115.78 L362.04 114.83 L364.04 113.89 L366.04 112.96 L368.04 112.03 L370.04 111.12 L372.04 110.21 L374.04 109.31 L376.04 108.42 L378.04 107.55 L380.04 106.68 L382.04 105.82 L384.04 104.98 L386.04 104.14 L388.04 103.32 L390.04 102.51 L392.04 101.71 L394.04 100.92 L396.04 100.14 L398.04 99.38 L400.04 98.62 L402.04 97.88 L404.04 97.15 L406.04 96.43 L408.04 95.73 L410.04 95.03 L412.04 94.35 L414.04 93.68 L416.04 93.03 L418.04 92.38 L420.04 91.75 L422.04 91.13 L424.04 90.52 L426.04 89.92 L428.04 89.34 L430.04 88.77 L432.04 88.20 L434.04 87.65 L436.04 87.12 L438.04 86.59 L440.04 86.07 L442.04 85.57 L444.04 85.08 L446.04 84.59 L448.04 84.12 L450.04 83.66 L452.04 83.21 L454.04 82.77 L456.04 82.34 L458.04 81.92 L460.04 81.51 L462.04 81.10 L464.04 80.71 L466.04 80.33 L468.04 79.96 L470.04 79.59 L472.04 79.24 L474.04 78.89 L476.04 78.56 L478.04 78.23 L480.04 77.91 L482.04 77.59 L484.04 77.29 L486.04 76.99 L488.04 76.70 L490.04 76.42 L492.04 76.15 L494.04 75.88 L496.04 75.62 L498.04 75.37 L500.04 75.12 L502.04 74.88 L504.04 74.64 L506.04 74.42 L508.04 74.19 L510.04 73.98 L512.04 73.77 L514.04 73.57 L516.04 73.37 L518.04 73.17 L520.04 72.99 L522.04 72.80 L524.04 72.63 L526.04 72.45 L528.04 72.29 L530.04 72.12 L532.04 71.96 L534.04 71.81 L536.04 71.66 L538.04 71.51 L540.04 71.37 L542.04 71.23 L544.04 71.10 L546.04 70.97 L548.04 70.84 L550.04 70.72 L552.04 70.60 L554.04 70.49 L556.04 70.37 L558.04 70.26 L560.04 70.16 L562.04 70.05 L564.04 69.95 L566.04 69.86 L568.04 69.76 L570.04 69.67 L572.04 69.58 L574.04 69.50 L576.04 69.41 L578.04 69.33 L580.04 69.25 L582.04 69.17 L584.04 69.10 L586.04 69.03 L588.04 68.96 L590.04 68.89 L592.04 68.82 L594.04 68.76 L596.04 68.70 L598.04 68.64 L600.04 68.58 L602.04 68.52 L604.04 68.46 L606.04 68.41 L608.04 68.36 L610.04 68.31 L612.04 68.26 L614.04 68.21 L616.04 68.16 L618.04 68.12 L620.04 68.08 L622.04 68.03 L624.04 67.99 L626.04 67.95 L628.04 67.91 L630.04 67.88 L632.04 67.84 L634.04 67.81 L636.04 67.77 L638.04 67.74 L640.04 67.71 L642.04 67.67 L644.04 67.64 L646.04 67.61 L648.04 67.59 " style="fill:none;stroke:#000000;stroke-width:1;" /></g></svg>