<?xml version="1.0" standalone="no"?><!DOCTYPE svg PUBLIC "-//W3C//DTD SVG 1.1//EN" "http://www.w3.org/Graphics/SVG/1.1/DTD/svg11.dtd"><svg xmlns="http://www.w3.org/2000/svg" viewBox="0 0 650 400" version="1.1"><clipPath id="box"><rect x="0" y="0" width="650" height="400" style="fill:none;stroke:none;" /></clipPath><g clip-path="url(#box)"><rect x="0.00" y="0.00" width="650.00" height="400.00" style="fill:#FFFFFF;stroke:none;" /><path d="M0.00 360.00 L650.00 360.00 M0.00 306.00 L650.00 306.00 M0.00 253.00 L650.00 253.00 M0.00 200.00 L650.00 200.00 M0.00 146.00 L650.00 146.00 M0.00 93.00 L650.00 93.00 M0.00 39.00 L650.00 39.00 M12.00 0.00 L12.00 400.00 M64.00 0.00 L64.00 400.00 M116.00 0.00 L116.00 400.00 M168.00 0.00 L168.00 400.00 M220.00 0.00 L220.00 400.00 M273.00 0.00 L273.00 400.00 M325.00 0.00 L325.00 400.00 M377.00 0.00 L377.00 400.00 M429.00 0.00 L429.00 400.00 M481.00 0.00 L481.00 400.00 M533.00 0.00 L533.00 400.00 M585.00 0.00 L585.00 400.00 M637.00 0.00 L637.00 400.00 " style="fill:none;stroke:#D0D0D0;stroke-width:1;" /><path d="M325.00 0.00 L325.00 400.00 " style="fill:none;stroke:#BFAEAE;stroke-width:1;" /><path d="M0.00 200.00 L650.00 200.00 " style="fill:none;stroke:#BFAEAE;stroke-width:1;" /><text x="333.125" y="362.50000000000006" text-anchor="start" style="font:10px Droid Sans,Trebuchet MS,Arial,Helvetica,sans-serif;stroke:none;fill:#000000">-1.5</text><text x="333.125" y="309.1666666666667" text-anchor="start" style="font:10px Droid Sans,Trebuchet MS,Arial,Helvetica,sans-serif;stroke:none;fill:#000000">-1</text><text x="333.125" y="255.83333333333337" text-anchor="start" style="font:10px Droid Sans,Trebuchet MS,Arial,Helvetica,sans-serif;stroke:none;fill:#000000">-0.5</text><text x="333.125" y="202.5" text-anchor="start" style="font:10px Droid Sans,Trebuchet MS,Arial,Helvetica,sans-serif;stroke:none;fill:#000000">0</text><text x="333.125" y="149.16666666666666" text-anchor="start" style="font:10px Droid Sans,Trebuchet MS,Arial,Helvetica,sans-serif;stroke:none;fill:#000000">0.5</text><text x="333.125" y="95.83333333333331" text-anchor="start" style="font:10px Droid Sans,Trebuchet MS,Arial,Helvetica,sans-serif;stroke:none;fill:#000000">1</text><text x="333.125" y="42.499999999999964" text-anchor="start" style="font:10px Droid Sans,Trebuchet MS,Arial,Helvetica,sans-serif;stroke:none;fill:#000000">1.5</text><text x="12.999999999999956" y="216.125" text-anchor="middle" style="font:10px Droid Sans,Trebuchet MS,Arial,Helvetica,sans-serif;stroke:none;fill:#000000">-6</text><text x="64.99999999999997" y="216.125" text-anchor="middle" style="font:10px Droid Sans,Trebuchet MS,Arial,Helvetica,sans-serif;stroke:none;fill:#000000">-5</text><text x="116.99999999999997" y="216.125" text-anchor="middle" style="font:10px Droid Sans,Trebuchet MS,Arial,Helvetica,sans-serif;stroke:none;fill:#000000">-4</text><text x="168.99999999999997" y="216.125" text-anchor="middle" style="font:10px Droid Sans,Trebuchet MS,Arial,Helvetica,sans-serif;stroke:none;fill:#000000">-3</text><text x="220.99999999999997" y="216.125" text-anchor="middle" style="font:10px Droid Sans,Trebuchet MS,Arial,Helvetica,sans-serif;stroke:none;fill:#000000">-2</text><text x="273" y="216.125" text-anchor="middle" style="font:10px Droid Sans,Trebuchet MS,Arial,Helvetica,sans-serif;stroke:none;fill:#000000">-1</text><text x="325" y="216.125" text-anchor="middle" style="font:10px Droid Sans,Trebuchet MS,Arial,Helvetica,sans-serif;stroke:none;fill:#000000">0</text><text x="377" y="216.125" text-anchor="middle" style="font:10px Droid Sans,Trebuchet MS,Arial,Helvetica,sans-serif;stroke:none;fill:#000000">1</text><text x="429.0000000000001" y="216.125" text-anchor="middle" style="font:10px Droid Sans,Trebuchet MS,Arial,Helvetica,sans-serif;stroke:none;fill:#000000">2</text><text x="481.00000000000006" y="216.125" text-anchor="middle" style="font:10px Droid Sans,Trebuchet MS,Arial,Helvetica,sans-serif;stroke:none;fill:#000000">3</text><text x="533" y="216.125" text-anchor="middle" style="font:10px Droid Sans,Trebuchet MS,Arial,Helvetica,sans-serif;stroke:none;fill:#000000">4</text><text x="585.0000000000001" y="216.125" text-anchor="middle" style="font:10px Droid Sans,Trebuchet MS,Arial,Helvetica,sans-serif;stroke:none;fill:#000000">5</text><text x="637.0000000000001" y="216.125" text-anchor="middle" style="font:10px Droid Sans,Trebuchet MS,Arial,Helvetica,sans-serif;stroke:none;fill:#000000">6</text><path d="M-10.00 200.00 L-0.25 201.28 L0.75 201.30 L2.75 201.34 L4.75 201.39 L6.75 201.43 L8.75 201.48 L10.75 201.53 L12.75 201.58 L14.75 201.63 L16.75 201.68 L18.75 201.74 L20.75 201.79 L22.75 201.85 L24.75 201.91 L26.75 201.97 L28.75 202.04 L30.75 202.10 L32.75 202.17 L34.75 202.24 L36.75 202.31 L38.75 202.38 L40.75 202.46 L42.75 202.54 L44.75 202.62 L46.75 202.70 L48.75 202.79 L50.75 202.87 L52.75 202.97 L54.75 203.06 L56.75 203.15 L58.75 203.25 L60.75 203.36 L62.75 203.46 L64.75 203.57 L66.75 203.68 L68.75 203.79 L70.75 203.91 L72.75 204.03 L74.75 204.16 L76.75 204.28 L78.75 204.41 L80.75 204.55 L82.75 204.69 L84.75 204.83 L86.75 204.98 L88.75 205.13 L90.75 205.28 L92.75 205.44 L94.75 205.61 L96.75 205.77 L98.75 205.95 L100.75 206.12 L102.75 206.30 L104.75 206.49 L106.75 206.68 L108.75 206.88 L110.75 207.08 L112.75 207.29 L114.75 207.50 L116.75 207.72 L118.75 207.94 L120.75 208.17 L122.75 208.40 L124.75 208.64 L126.75 208.89 L128.75 209.14 L130.75 209.39 L132.75 209.66 L134.75 209.93 L136.75 210.20 L138.75 210.48 L140.75 210.77 L142.75 211.07 L144.75 211.37 L146.75 211.67 L148.75 211.99 L150.75 212.31 L152.75 212.64 L154.75 212.97 L156.75 213.31 L158.75 213.66 L160.75 214.01 L162.75 214.37 L164.75 214.74 L166.75 215.11 L168.75 215.49 L170.75 215.87 L172.75 216.27 L174.75 216.66 L176.75 217.07 L178.75 217.48 L180.75 217.89 L182.75 218.31 L184.75 218.74 L186.75 219.17 L188.75 219.61 L190.75 220.05 L192.75 220.49 L194.75 220.94 L196.75 221.39 L198.75 221.84 L200.75 222.30 L202.75 222.76 L204.75 223.22 L206.75 223.68 L208.75 224.14 L210.75 224.60 L212.75 225.06 L214.75 225.52 L216.75 225.98 L218.75 226.43 L220.75 226.88 L222.75 227.32 L224.75 227.76 L226.75 228.18 L228.75 228.60 L230.75 229.01 L232.75 229.41 L234.75 229.80 L236.75 230.17 L238.75 230.53 L240.75 230.87 L242.75 231.19 L244.75 231.49 L246.75 231.76 L248.75 232.02 L250.75 232.25 L252.75 232.44 L254.75 232.61 L256.75 232.75 L258.75 232.85 L260.75 232.92 L262.75 232.94 L264.75 232.93 L266.75 232.87 L268.75 232.76 L270.75 232.60 L272.75 232.39 L274.75 232.13 L276.75 231.81 L278.75 231.43 L280.75 230.98 L282.75 230.47 L284.75 229.89 L286.75 229.24 L288.75 228.52 L290.75 227.71 L292.75 226.83 L294.75 225.87 L296.75 224.83 L298.66 223.75 L300.43 222.67 L302.08 221.61 L303.63 220.55 L305.10 219.50 L306.49 218.45 L307.83 217.41 L309.10 216.37 L310.33 215.33 L311.51 214.30 L312.65 213.26 L313.76 212.23 L314.83 211.20 L315.87 210.18 L316.89 209.15 L317.88 208.12 L318.84 207.10 L319.78 206.08 L320.70 205.06 L321.60 204.04 L322.49 203.02 L323.35 202.00 L324.20 200.98 L325.03 199.96 L325.85 198.94 L326.66 197.93 L327.45 196.91 L328.23 195.90 L329.00 194.88 L329.75 193.87 L330.50 192.85 L331.24 191.84 L331.96 190.83 L332.68 189.81 L333.39 188.80 L334.09 187.79 L334.78 186.78 L335.46 185.77 L336.14 184.76 L336.80 183.75 L337.47 182.73 L338.12 181.72 L338.77 180.72 L339.41 179.71 L340.05 178.70 L340.68 177.69 L341.30 176.68 L341.92 175.67 L342.54 174.66 L343.15 173.65 L343.75 172.65 L344.35 171.64 L344.94 170.63 L345.54 169.62 L346.12 168.62 L346.70 167.61 L347.28 166.60 L347.86 165.60 L348.43 164.59 L348.99 163.58 L349.56 162.58 L350.12 161.57 L350.67 160.57 L351.23 159.56 L351.78 158.55 L352.32 157.55 L352.87 156.54 L353.41 155.54 L353.95 154.53 L354.48 153.53 L355.02 152.52 L355.55 151.52 L356.08 150.51 L356.60 149.51 L357.13 148.51 L357.65 147.50 L358.17 146.50 L358.68 145.49 L359.20 144.49 L359.71 143.48 L360.22 142.48 L360.73 141.48 L361.23 140.47 L361.74 139.47 L362.24 138.47 L362.74 137.46 L363.24 136.46 L363.74 135.46 L364.24 134.45 L364.73 133.45 L365.22 132.45 L365.72 131.44 L366.21 130.44 L366.69 129.44 L367.18 128.44 L367.67 127.43 L368.15 126.43 L368.64 125.43 L369.12 124.43 L369.60 123.42 L370.08 122.42 L370.56 121.42 L371.03 120.42 L371.51 119.41 L371.99 118.41 L372.46 117.41 L372.93 116.41 L373.41 115.41 L373.88 114.40 L374.35 113.40 L374.82 112.40 L375.29 111.40 L375.76 110.40 L376.22 109.39 L376.69 108.39 L377.15 107.39 L377.62 106.39 L378.08 105.39 L378.55 104.39 L379.01 103.39 L379.47 102.38 L379.93 101.38 L380.39 100.38 L380.85 99.38 L381.31 98.38 L381.77 97.38 L382.23 96.38 L382.69 95.38 L383.15 94.37 L383.60 93.37 L384.06 92.37 L384.52 91.37 L384.97 90.37 L385.43 89.37 L385.88 88.37 L386.34 87.37 L386.79 86.37 L387.24 85.37 L387.70 84.36 L388.15 83.36 L388.60 82.36 L389.05 81.36 L389.51 80.36 L389.96 79.36 L390.41 78.36 L390.86 77.36 L391.31 76.36 L391.76 75.36 L392.21 74.36 L392.66 73.36 L393.11 72.36 L393.56 71.36 L394.01 70.36 L394.46 69.36 L394.91 68.36 L395.36 67.36 L395.81 66.36 L396.26 65.36 L396.71 64.36 L397.15 63.36 L397.60 62.35 L398.05 61.35 L398.50 60.35 L398.95 59.35 L399.40 58.35 L399.84 57.35 L400.29 56.35 L400.74 55.35 L401.19 54.35 L401.64 53.35 L402.08 52.35 L402.53 51.35 L402.98 50.35 L403.43 49.35 L403.87 48.35 L404.32 47.35 L404.77 46.35 L405.22 45.35 L405.67 44.35 L406.11 43.35 L406.56 42.35 L407.01 41.35 L407.46 40.35 L407.91 39.35 L408.36 38.35 L408.80 37.36 L409.25 36.36 L409.70 35.36 L410.15 34.36 L410.60 33.36 L411.05 32.36 L411.50 31.36 L411.94 30.36 L412.39 29.36 L412.84 28.36 L413.29 27.36 L413.74 26.36 L414.19 25.36 L414.64 24.36 L415.09 23.36 L415.54 22.36 L415.99 21.36 L416.44 20.36 L416.89 19.36 L417.34 18.36 L417.79 17.36 L418.24 16.36 L418.70 15.36 L419.15 14.36 L419.60 13.36 L420.05 12.36 L420.50 11.36 L420.95 10.36 L421.41 9.36 L421.86 8.36 L422.31 7.36 L422.76 6.37 L423.22 5.37 L423.67 4.37 L424.12 3.37 L424.58 2.37 L425.03 1.37 L425.49 0.37 L425.94 -0.63 " style="fill:none;stroke:#000000;stroke-width:1;" /></g></svg>